<svg width="21" height="26" viewBox="0 0 21 26" fill="none" xmlns="http://www.w3.org/2000/svg">
<path d="M19.5 11.119C19.5 6.31182 15.4257 2.5 10.5 2.5C5.57425 2.5 1.5 6.31182 1.5 11.119C1.5 13.1801 2.25923 15.0539 3.5 16.5254V22.1334C3.5 23.4864 4.81552 24.449 6.10516 24.0396L10.5 22.6444L14.8948 24.0396C16.1845 24.449 17.5 23.4864 17.5 22.1334V16.5254C18.7408 15.0539 19.5 13.1801 19.5 11.119Z" fill="black" stroke="black" stroke-width="2"/>
<path d="M19.5 10.119C19.5 5.31182 15.4257 1.5 10.5 1.5C5.57425 1.5 1.5 5.31182 1.5 10.119C1.5 12.1801 2.25923 14.0539 3.5 15.5254V21.1334C3.5 22.4864 4.81552 23.449 6.10516 23.0396L10.5 21.6444L14.8948 23.0396C16.1845 23.449 17.5 22.4864 17.5 21.1334V15.5254C18.7408 14.0539 19.5 12.1801 19.5 10.119Z" fill="url(#paint0_linear_9_168)" stroke="black" stroke-width="2"/>
<path d="M10.5 12.5343L7.40667 14.881L8.58 11.081L5.5 8.62765H9.28667L10.5 4.88098L11.7133 8.62765H15.5L12.4067 11.081L13.58 14.881L10.5 12.5343Z" fill="black"/>
<defs>
<linearGradient id="paint0_linear_9_168" x1="10.5" y1="2.5" x2="10.5" y2="22.5" gradientUnits="userSpaceOnUse">
<stop offset="0.0001" stop-color="#E879F9"/>
<stop offset="1" stop-color="#CF364C"/>
</linearGradient>
</defs>
</svg>
