<svg width="34" height="31" viewBox="0 0 34 31" fill="none" xmlns="http://www.w3.org/2000/svg">
<g filter="url(#filter0_d_353_8819)">
<path d="M2.71877 13.0077L9.00448 2.00772C9.36057 1.38457 10.0233 1 10.741 1H23.259C23.9767 1 24.6394 1.38457 24.9955 2.00772L31.2812 13.0077C31.6326 13.6226 31.6326 14.3774 31.2812 14.9923L24.9955 25.9923C24.6394 26.6154 23.9767 27 23.259 27H10.741C10.0233 27 9.36057 26.6154 9.00448 25.9923L2.71877 14.9923C2.36742 14.3774 2.36742 13.6226 2.71877 13.0077Z" fill="#8BC031" stroke="black" stroke-width="2"/>
<path d="M16.7143 23C20.9743 23 24.4286 19.5457 24.4286 15.2857C20.1686 15.2857 16.7143 18.74 16.7143 23ZM11.2286 12.9286C11.2286 14.1114 12.1886 15.0714 13.3714 15.0714C13.8257 15.0714 14.2371 14.9343 14.5886 14.6943L14.5714 14.8571C14.5714 16.04 15.5314 17 16.7143 17C17.8971 17 18.8571 16.04 18.8571 14.8571L18.84 14.6943C19.1829 14.9343 19.6029 15.0714 20.0571 15.0714C21.24 15.0714 22.2 14.1114 22.2 12.9286C22.2 12.0714 21.6943 11.3429 20.9743 11C21.6943 10.6571 22.2 9.92857 22.2 9.07143C22.2 7.88857 21.24 6.92857 20.0571 6.92857C19.6029 6.92857 19.1914 7.06571 18.84 7.30571L18.8571 7.14286C18.8571 5.96 17.8971 5 16.7143 5C15.5314 5 14.5714 5.96 14.5714 7.14286L14.5886 7.30571C14.2457 7.06571 13.8257 6.92857 13.3714 6.92857C12.1886 6.92857 11.2286 7.88857 11.2286 9.07143C11.2286 9.92857 11.7343 10.6571 12.4543 11C11.7343 11.3429 11.2286 12.0714 11.2286 12.9286ZM9 15.2857C9 19.5457 12.4543 23 16.7143 23C16.7143 18.74 13.26 15.2857 9 15.2857Z" fill="black"/>
</g>
<defs>
<filter id="filter0_d_353_8819" x="0" y="0" width="34" height="31" filterUnits="userSpaceOnUse" color-interpolation-filters="sRGB">
<feFlood flood-opacity="0" result="BackgroundImageFix"/>
<feColorMatrix in="SourceAlpha" type="matrix" values="0 0 0 0 0 0 0 0 0 0 0 0 0 0 0 0 0 0 127 0" result="hardAlpha"/>
<feOffset dy="2"/>
<feGaussianBlur stdDeviation="0.5"/>
<feComposite in2="hardAlpha" operator="out"/>
<feColorMatrix type="matrix" values="0 0 0 0 0 0 0 0 0 0 0 0 0 0 0 0 0 0 0.5 0"/>
<feBlend mode="normal" in2="BackgroundImageFix" result="effect1_dropShadow_353_8819"/>
<feBlend mode="normal" in="SourceGraphic" in2="effect1_dropShadow_353_8819" result="shape"/>
</filter>
</defs>
</svg>
