<svg width="34" height="31" viewBox="0 0 34 31" fill="none" xmlns="http://www.w3.org/2000/svg">
<g filter="url(#filter0_d_353_8759)">
<path d="M2.71877 13.0077L9.00448 2.00772C9.36057 1.38457 10.0233 1 10.741 1H23.259C23.9767 1 24.6394 1.38457 24.9955 2.00772L31.2812 13.0077C31.6326 13.6226 31.6326 14.3774 31.2812 14.9923L24.9955 25.9923C24.6394 26.6154 23.9767 27 23.259 27H10.741C10.0233 27 9.36057 26.6154 9.00448 25.9923L2.71877 14.9923C2.36742 14.3774 2.36742 13.6226 2.71877 13.0077Z" fill="#FACC15" stroke="black" stroke-width="2"/>
<path d="M21.934 14.3217C21.7132 14.193 21.4845 14.0885 21.2558 14C21.4845 13.9115 21.7132 13.807 21.934 13.6783C23.4482 12.7855 24.2921 11.1689 24.3 9.50402C22.8883 8.6756 21.0902 8.61126 19.568 9.50402C19.3472 9.63271 19.1422 9.78552 18.9529 9.93834C18.9923 9.68901 19.016 9.43164 19.016 9.17426C19.016 7.38874 18.0617 5.83646 16.65 5C15.2383 5.83646 14.284 7.38874 14.284 9.17426C14.284 9.43164 14.3077 9.68901 14.3471 9.93834C14.1578 9.77748 13.9528 9.62466 13.732 9.49598C12.2177 8.60322 10.4196 8.66756 9 9.49598C9 11.1609 9.84387 12.7775 11.366 13.6702C11.5868 13.7989 11.8155 13.9035 12.0442 13.992C11.8155 14.0804 11.5868 14.185 11.366 14.3137C9.85175 15.2064 9.00789 16.8231 9 18.4879C10.4117 19.3164 12.2098 19.3807 13.732 18.4879C13.9528 18.3592 14.1578 18.2064 14.3471 18.0536C14.3077 18.311 14.284 18.5684 14.284 18.8257C14.284 20.6113 15.2383 22.1635 16.65 23C18.0617 22.1635 19.016 20.6113 19.016 18.8257C19.016 18.5684 18.9923 18.311 18.9529 18.0617C19.1422 18.2225 19.3472 18.3673 19.568 18.496C21.0823 19.3887 22.8804 19.3244 24.3 18.496C24.2921 16.8311 23.4482 15.2145 21.934 14.3217Z" fill="black"/>
</g>
<defs>
<filter id="filter0_d_353_8759" x="0" y="0" width="34" height="31" filterUnits="userSpaceOnUse" color-interpolation-filters="sRGB">
<feFlood flood-opacity="0" result="BackgroundImageFix"/>
<feColorMatrix in="SourceAlpha" type="matrix" values="0 0 0 0 0 0 0 0 0 0 0 0 0 0 0 0 0 0 127 0" result="hardAlpha"/>
<feOffset dy="2"/>
<feGaussianBlur stdDeviation="0.5"/>
<feComposite in2="hardAlpha" operator="out"/>
<feColorMatrix type="matrix" values="0 0 0 0 0 0 0 0 0 0 0 0 0 0 0 0 0 0 0.5 0"/>
<feBlend mode="normal" in2="BackgroundImageFix" result="effect1_dropShadow_353_8759"/>
<feBlend mode="normal" in="SourceGraphic" in2="effect1_dropShadow_353_8759" result="shape"/>
</filter>
</defs>
</svg>
