<svg width="34" height="31" viewBox="0 0 34 31" fill="none" xmlns="http://www.w3.org/2000/svg">
<g filter="url(#filter0_d_353_8760)">
<path d="M2.71877 13.0077L9.00448 2.00772C9.36057 1.38457 10.0233 1 10.741 1H23.259C23.9767 1 24.6394 1.38457 24.9955 2.00772L31.2812 13.0077C31.6326 13.6226 31.6326 14.3774 31.2812 14.9923L24.9955 25.9923C24.6394 26.6154 23.9767 27 23.259 27H10.741C10.0233 27 9.36057 26.6154 9.00448 25.9923L2.71877 14.9923C2.36742 14.3774 2.36742 13.6226 2.71877 13.0077Z" fill="#37BDF8" stroke="black" stroke-width="2"/>
<path d="M14.3 18.65C14.585 19.025 14.75 19.49 14.75 20C14.75 21.245 13.745 22.25 12.5 22.25C11.255 22.25 10.25 21.245 10.25 20C10.25 18.755 11.255 17.75 12.5 17.75C12.83 17.75 13.1375 17.8175 13.4225 17.945L14.48 16.6175C13.79 15.845 13.5125 14.825 13.6625 13.85L12.14 13.34C11.735 13.9625 11.045 14.375 10.25 14.375C9.005 14.375 8 13.37 8 12.125C8 10.88 9.005 9.875 10.25 9.875C11.495 9.875 12.5 10.88 12.5 12.125C12.5 12.1775 12.5 12.23 12.4925 12.2825L14.015 12.7925C14.495 11.885 15.38 11.225 16.43 11.0525V9.4325C15.47 9.1775 14.75 8.3 14.75 7.25C14.75 6.005 15.755 5 17 5C18.245 5 19.25 6.005 19.25 7.25C19.25 8.3 18.53 9.1775 17.5625 9.4325V11.0525C18.6125 11.225 19.4975 11.885 19.9775 12.7925L21.5 12.2825C21.5 12.23 21.5 12.1775 21.5 12.125C21.5 10.88 22.505 9.875 23.75 9.875C24.995 9.875 26 10.88 26 12.125C26 13.37 24.995 14.375 23.75 14.375C22.955 14.375 22.265 13.9625 21.86 13.3475L20.3375 13.8575C20.4875 14.825 20.2175 15.845 19.52 16.625L20.5775 17.9525C20.8625 17.8175 21.17 17.75 21.5 17.75C22.745 17.75 23.75 18.755 23.75 20C23.75 21.245 22.745 22.25 21.5 22.25C20.255 22.25 19.25 21.245 19.25 20C19.25 19.49 19.415 19.025 19.7 18.65L18.6425 17.3225C17.63 17.885 16.385 17.8925 15.365 17.3225L14.3 18.65Z" fill="black"/>
</g>
<defs>
<filter id="filter0_d_353_8760" x="0" y="0" width="34" height="31" filterUnits="userSpaceOnUse" color-interpolation-filters="sRGB">
<feFlood flood-opacity="0" result="BackgroundImageFix"/>
<feColorMatrix in="SourceAlpha" type="matrix" values="0 0 0 0 0 0 0 0 0 0 0 0 0 0 0 0 0 0 127 0" result="hardAlpha"/>
<feOffset dy="2"/>
<feGaussianBlur stdDeviation="0.5"/>
<feComposite in2="hardAlpha" operator="out"/>
<feColorMatrix type="matrix" values="0 0 0 0 0 0 0 0 0 0 0 0 0 0 0 0 0 0 0.5 0"/>
<feBlend mode="normal" in2="BackgroundImageFix" result="effect1_dropShadow_353_8760"/>
<feBlend mode="normal" in="SourceGraphic" in2="effect1_dropShadow_353_8760" result="shape"/>
</filter>
</defs>
</svg>
