<svg width="34" height="31" viewBox="0 0 34 31" fill="none" xmlns="http://www.w3.org/2000/svg">
<g filter="url(#filter0_d_353_8826)">
<path d="M2.71877 13.0077L9.00448 2.00772C9.36057 1.38457 10.0233 1 10.741 1H23.259C23.9767 1 24.6394 1.38457 24.9955 2.00772L31.2812 13.0077C31.6326 13.6226 31.6326 14.3774 31.2812 14.9923L24.9955 25.9923C24.6394 26.6154 23.9767 27 23.259 27H10.741C10.0233 27 9.36057 26.6154 9.00448 25.9923L2.71877 14.9923C2.36742 14.3774 2.36742 13.6226 2.71877 13.0077Z" fill="#9CA2AD" stroke="black" stroke-width="2"/>
<path d="M12.2259 21V18.7244L17.0008 14.544C17.3588 14.2202 17.6634 13.924 17.9149 13.6555C18.1663 13.3828 18.358 13.1101 18.4901 12.8374C18.6222 12.5604 18.6883 12.2599 18.6883 11.9361C18.6883 11.5739 18.6095 11.2649 18.4518 11.0092C18.2941 10.7493 18.0768 10.549 17.7998 10.4084C17.5228 10.2678 17.2053 10.1974 16.8474 10.1974C16.4852 10.1974 16.1677 10.272 15.895 10.4212C15.6222 10.5661 15.4092 10.777 15.2558 11.054C15.1066 11.331 15.032 11.6676 15.032 12.0639H12.0342C12.0342 11.1733 12.2345 10.4041 12.635 9.75639C13.0356 9.10866 13.5981 8.61008 14.3225 8.26065C15.0512 7.90696 15.8971 7.73011 16.8602 7.73011C17.8531 7.73011 18.716 7.89631 19.449 8.22869C20.1819 8.56108 20.7487 9.02557 21.1492 9.62216C21.5541 10.2145 21.7565 10.9027 21.7565 11.6868C21.7565 12.1854 21.6563 12.6797 21.4561 13.1697C21.2558 13.6598 20.8957 14.201 20.3758 14.7933C19.8602 15.3857 19.1272 16.0952 18.1769 16.9219L16.6109 18.3665V18.4496H21.9163V21H12.2259Z" fill="black"/>
</g>
<defs>
<filter id="filter0_d_353_8826" x="0" y="0" width="34" height="31" filterUnits="userSpaceOnUse" color-interpolation-filters="sRGB">
<feFlood flood-opacity="0" result="BackgroundImageFix"/>
<feColorMatrix in="SourceAlpha" type="matrix" values="0 0 0 0 0 0 0 0 0 0 0 0 0 0 0 0 0 0 127 0" result="hardAlpha"/>
<feOffset dy="2"/>
<feGaussianBlur stdDeviation="0.5"/>
<feComposite in2="hardAlpha" operator="out"/>
<feColorMatrix type="matrix" values="0 0 0 0 0 0 0 0 0 0 0 0 0 0 0 0 0 0 0.5 0"/>
<feBlend mode="normal" in2="BackgroundImageFix" result="effect1_dropShadow_353_8826"/>
<feBlend mode="normal" in="SourceGraphic" in2="effect1_dropShadow_353_8826" result="shape"/>
</filter>
</defs>
</svg>
