<svg width="34" height="31" viewBox="0 0 34 31" fill="none" xmlns="http://www.w3.org/2000/svg">
<g filter="url(#filter0_d_353_8822)">
<path d="M2.71877 13.0077L9.00448 2.00772C9.36057 1.38457 10.0233 1 10.741 1H23.259C23.9767 1 24.6394 1.38457 24.9955 2.00772L31.2812 13.0077C31.6326 13.6226 31.6326 14.3774 31.2812 14.9923L24.9955 25.9923C24.6394 26.6154 23.9767 27 23.259 27H10.741C10.0233 27 9.36057 26.6154 9.00448 25.9923L2.71877 14.9923C2.36742 14.3774 2.36742 13.6226 2.71877 13.0077Z" fill="#9CA2AD" stroke="black" stroke-width="2"/>
<path d="M16.9984 21.3196C15.8564 21.3196 14.872 21.049 14.0453 20.5078C13.2186 19.9624 12.5815 19.1804 12.1341 18.1619C11.6866 17.1392 11.465 15.9098 11.4693 14.4737C11.4735 13.0376 11.6973 11.8189 12.1404 10.8175C12.5879 9.81179 13.2228 9.04687 14.0453 8.52273C14.872 7.99432 15.8564 7.73011 16.9984 7.73011C18.1404 7.73011 19.1248 7.99432 19.9515 8.52273C20.7825 9.04687 21.4217 9.81179 21.8691 10.8175C22.3166 11.8232 22.5382 13.0419 22.5339 14.4737C22.5339 15.9141 22.3102 17.1456 21.8627 18.1683C21.4153 19.1911 20.7782 19.973 19.9515 20.5142C19.1291 21.0511 18.1447 21.3196 16.9984 21.3196ZM16.9984 18.7308C17.6802 18.7308 18.2321 18.3835 18.6539 17.6889C19.0758 16.9901 19.2846 15.9183 19.2804 14.4737C19.2804 13.5277 19.1845 12.7479 18.9927 12.1342C18.801 11.5163 18.5346 11.0561 18.1937 10.7536C17.8528 10.451 17.4544 10.2997 16.9984 10.2997C16.3208 10.2997 15.7733 10.6428 15.3556 11.3288C14.938 12.0107 14.7271 13.0589 14.7228 14.4737C14.7186 15.4325 14.8102 16.2273 14.9977 16.858C15.1895 17.4886 15.4579 17.9595 15.8031 18.2706C16.1483 18.5774 16.5467 18.7308 16.9984 18.7308Z" fill="black"/>
</g>
<defs>
<filter id="filter0_d_353_8822" x="0" y="0" width="34" height="31" filterUnits="userSpaceOnUse" color-interpolation-filters="sRGB">
<feFlood flood-opacity="0" result="BackgroundImageFix"/>
<feColorMatrix in="SourceAlpha" type="matrix" values="0 0 0 0 0 0 0 0 0 0 0 0 0 0 0 0 0 0 127 0" result="hardAlpha"/>
<feOffset dy="2"/>
<feGaussianBlur stdDeviation="0.5"/>
<feComposite in2="hardAlpha" operator="out"/>
<feColorMatrix type="matrix" values="0 0 0 0 0 0 0 0 0 0 0 0 0 0 0 0 0 0 0.5 0"/>
<feBlend mode="normal" in2="BackgroundImageFix" result="effect1_dropShadow_353_8822"/>
<feBlend mode="normal" in="SourceGraphic" in2="effect1_dropShadow_353_8822" result="shape"/>
</filter>
</defs>
</svg>
