<svg width="34" height="31" viewBox="0 0 34 31" fill="none" xmlns="http://www.w3.org/2000/svg">
<g filter="url(#filter0_d_353_8847)">
<path d="M2.71877 13.0077L9.00448 2.00772C9.36057 1.38457 10.0233 1 10.741 1H23.259C23.9767 1 24.6394 1.38457 24.9955 2.00772L31.2812 13.0077C31.6326 13.6226 31.6326 14.3774 31.2812 14.9923L24.9955 25.9923C24.6394 26.6154 23.9767 27 23.259 27H10.741C10.0233 27 9.36057 26.6154 9.00448 25.9923L2.71877 14.9923C2.36742 14.3774 2.36742 13.6226 2.71877 13.0077Z" fill="#9CA2AD" stroke="black" stroke-width="2"/>
<path d="M13.614 7.90909V21H10.4563V10.8622H10.3796L7.45204 12.652V9.91619L10.68 7.90909H13.614ZM21.022 21.3196C19.88 21.3196 18.8956 21.049 18.0689 20.5078C17.2422 19.9624 16.6051 19.1804 16.1577 18.1619C15.7102 17.1392 15.4887 15.9098 15.4929 14.4737C15.4972 13.0376 15.7209 11.8189 16.1641 10.8175C16.6115 9.81179 17.2465 9.04687 18.0689 8.52273C18.8956 7.99432 19.88 7.73011 21.022 7.73011C22.1641 7.73011 23.1485 7.99432 23.9752 8.52273C24.8061 9.04687 25.4453 9.81179 25.8928 10.8175C26.3402 11.8232 26.5618 13.0419 26.5575 14.4737C26.5575 15.9141 26.3338 17.1456 25.8864 18.1683C25.4389 19.1911 24.8019 19.973 23.9752 20.5142C23.1527 21.0511 22.1683 21.3196 21.022 21.3196ZM21.022 18.7308C21.7039 18.7308 22.2557 18.3835 22.6776 17.6889C23.0994 16.9901 23.3083 15.9183 23.304 14.4737C23.304 13.5277 23.2081 12.7479 23.0164 12.1342C22.8246 11.5163 22.5583 11.0561 22.2173 10.7536C21.8764 10.451 21.478 10.2997 21.022 10.2997C20.3445 10.2997 19.7969 10.6428 19.3793 11.3288C18.9617 12.0107 18.7507 13.0589 18.7465 14.4737C18.7422 15.4325 18.8338 16.2273 19.0213 16.858C19.2131 17.4886 19.4816 17.9595 19.8267 18.2706C20.1719 18.5774 20.5703 18.7308 21.022 18.7308Z" fill="black"/>
</g>
<defs>
<filter id="filter0_d_353_8847" x="0" y="0" width="34" height="31" filterUnits="userSpaceOnUse" color-interpolation-filters="sRGB">
<feFlood flood-opacity="0" result="BackgroundImageFix"/>
<feColorMatrix in="SourceAlpha" type="matrix" values="0 0 0 0 0 0 0 0 0 0 0 0 0 0 0 0 0 0 127 0" result="hardAlpha"/>
<feOffset dy="2"/>
<feGaussianBlur stdDeviation="0.5"/>
<feComposite in2="hardAlpha" operator="out"/>
<feColorMatrix type="matrix" values="0 0 0 0 0 0 0 0 0 0 0 0 0 0 0 0 0 0 0.5 0"/>
<feBlend mode="normal" in2="BackgroundImageFix" result="effect1_dropShadow_353_8847"/>
<feBlend mode="normal" in="SourceGraphic" in2="effect1_dropShadow_353_8847" result="shape"/>
</filter>
</defs>
</svg>
