<svg width="34" height="31" viewBox="0 0 34 31" fill="none" xmlns="http://www.w3.org/2000/svg">
<g filter="url(#filter0_d_353_8835)">
<path d="M2.71877 13.0077L9.00448 2.00772C9.36057 1.38457 10.0233 1 10.741 1H23.259C23.9767 1 24.6394 1.38457 24.9955 2.00772L31.2812 13.0077C31.6326 13.6226 31.6326 14.3774 31.2812 14.9923L24.9955 25.9923C24.6394 26.6154 23.9767 27 23.259 27H10.741C10.0233 27 9.36057 26.6154 9.00448 25.9923L2.71877 14.9923C2.36742 14.3774 2.36742 13.6226 2.71877 13.0077Z" fill="#9CA2AD" stroke="black" stroke-width="2"/>
<path d="M17.0615 21.179C16.107 21.179 15.259 21.0064 14.5175 20.6612C13.776 20.3161 13.1901 19.8409 12.7597 19.2358C12.3335 18.6307 12.1119 17.9361 12.0949 17.152H15.1631C15.1887 17.6335 15.3847 18.0213 15.7512 18.3153C16.1176 18.6051 16.5544 18.75 17.0615 18.75C17.4578 18.75 17.8094 18.6626 18.1162 18.4879C18.423 18.3132 18.6638 18.0682 18.8385 17.7528C19.0132 17.4332 19.0985 17.0668 19.0942 16.6534C19.0985 16.2315 19.0111 15.8629 18.8321 15.5476C18.6574 15.2322 18.4145 14.9872 18.1034 14.8125C17.7966 14.6335 17.4429 14.544 17.0423 14.544C16.6631 14.5398 16.303 14.6229 15.9621 14.7933C15.6254 14.9638 15.3698 15.196 15.195 15.4901L12.4017 14.9659L12.9706 7.90909H21.3698V10.4595H15.5722L15.2718 13.5469H15.3485C15.5658 13.1847 15.9152 12.8864 16.3968 12.652C16.8825 12.4134 17.4344 12.294 18.0523 12.294C18.8364 12.294 19.5352 12.4773 20.1489 12.8438C20.7668 13.206 21.2526 13.7088 21.6063 14.3523C21.9642 14.9957 22.1432 15.733 22.1432 16.5639C22.1432 17.4631 21.9301 18.2599 21.504 18.9545C21.0821 19.6491 20.4898 20.1946 19.727 20.5909C18.9685 20.983 18.08 21.179 17.0615 21.179Z" fill="black"/>
</g>
<defs>
<filter id="filter0_d_353_8835" x="0" y="0" width="34" height="31" filterUnits="userSpaceOnUse" color-interpolation-filters="sRGB">
<feFlood flood-opacity="0" result="BackgroundImageFix"/>
<feColorMatrix in="SourceAlpha" type="matrix" values="0 0 0 0 0 0 0 0 0 0 0 0 0 0 0 0 0 0 127 0" result="hardAlpha"/>
<feOffset dy="2"/>
<feGaussianBlur stdDeviation="0.5"/>
<feComposite in2="hardAlpha" operator="out"/>
<feColorMatrix type="matrix" values="0 0 0 0 0 0 0 0 0 0 0 0 0 0 0 0 0 0 0.5 0"/>
<feBlend mode="normal" in2="BackgroundImageFix" result="effect1_dropShadow_353_8835"/>
<feBlend mode="normal" in="SourceGraphic" in2="effect1_dropShadow_353_8835" result="shape"/>
</filter>
</defs>
</svg>
