<svg width="34" height="31" viewBox="0 0 34 31" fill="none" xmlns="http://www.w3.org/2000/svg">
<g filter="url(#filter0_d_353_8874)">
<path d="M2.71877 13.0077L9.00448 2.00772C9.36057 1.38457 10.0233 1 10.741 1H23.259C23.9767 1 24.6394 1.38457 24.9955 2.00772L31.2812 13.0077C31.6326 13.6226 31.6326 14.3774 31.2812 14.9923L24.9955 25.9923C24.6394 26.6154 23.9767 27 23.259 27H10.741C10.0233 27 9.36057 26.6154 9.00448 25.9923L2.71877 14.9923C2.36742 14.3774 2.36742 13.6226 2.71877 13.0077Z" fill="#9CA2AD" stroke="black" stroke-width="2"/>
<path d="M14.4043 8.36364V20H11.5974V10.9886H11.5293L8.92699 12.5795V10.1477L11.7963 8.36364H14.4043ZM20.6312 20.1591C19.7828 20.1591 19.029 20.0057 18.3699 19.6989C17.7108 19.392 17.19 18.9697 16.8074 18.4318C16.4286 17.8939 16.2316 17.2765 16.2165 16.5795H18.9437C18.9665 17.0076 19.1407 17.3523 19.4665 17.6136C19.7922 17.8712 20.1805 18 20.6312 18C20.9835 18 21.296 17.9223 21.5687 17.767C21.8415 17.6117 22.0555 17.3939 22.2108 17.1136C22.3661 16.8295 22.4419 16.5038 22.4381 16.1364C22.4419 15.7614 22.3642 15.4337 22.2051 15.1534C22.0498 14.8731 21.8339 14.6553 21.5574 14.5C21.2847 14.3409 20.9703 14.2614 20.6142 14.2614C20.2771 14.2576 19.957 14.3314 19.654 14.483C19.3547 14.6345 19.1275 14.8409 18.9722 15.1023L16.4892 14.6364L16.9949 8.36364H24.4608V10.6307H19.3074L19.0403 13.375H19.1085C19.3017 13.053 19.6123 12.7879 20.0403 12.5795C20.4722 12.3674 20.9627 12.2614 21.5119 12.2614C22.2089 12.2614 22.8301 12.4242 23.3756 12.75C23.9248 13.072 24.3566 13.5189 24.671 14.0909C24.9892 14.6629 25.1483 15.3182 25.1483 16.0568C25.1483 16.8561 24.9589 17.5644 24.5801 18.1818C24.2051 18.7992 23.6786 19.2841 23.0006 19.6364C22.3263 19.9848 21.5366 20.1591 20.6312 20.1591Z" fill="black"/>
</g>
<defs>
<filter id="filter0_d_353_8874" x="0" y="0" width="34" height="31" filterUnits="userSpaceOnUse" color-interpolation-filters="sRGB">
<feFlood flood-opacity="0" result="BackgroundImageFix"/>
<feColorMatrix in="SourceAlpha" type="matrix" values="0 0 0 0 0 0 0 0 0 0 0 0 0 0 0 0 0 0 127 0" result="hardAlpha"/>
<feOffset dy="2"/>
<feGaussianBlur stdDeviation="0.5"/>
<feComposite in2="hardAlpha" operator="out"/>
<feColorMatrix type="matrix" values="0 0 0 0 0 0 0 0 0 0 0 0 0 0 0 0 0 0 0.5 0"/>
<feBlend mode="normal" in2="BackgroundImageFix" result="effect1_dropShadow_353_8874"/>
<feBlend mode="normal" in="SourceGraphic" in2="effect1_dropShadow_353_8874" result="shape"/>
</filter>
</defs>
</svg>
