<svg width="34" height="31" viewBox="0 0 34 31" fill="none" xmlns="http://www.w3.org/2000/svg">
<g filter="url(#filter0_d_353_8829)">
<path d="M2.71877 13.0077L9.00448 2.00772C9.36057 1.38457 10.0233 1 10.741 1H23.259C23.9767 1 24.6394 1.38457 24.9955 2.00772L31.2812 13.0077C31.6326 13.6226 31.6326 14.3774 31.2812 14.9923L24.9955 25.9923C24.6394 26.6154 23.9767 27 23.259 27H10.741C10.0233 27 9.36057 26.6154 9.00448 25.9923L2.71877 14.9923C2.36742 14.3774 2.36742 13.6226 2.71877 13.0077Z" fill="#9CA2AD" stroke="black" stroke-width="2"/>
<path d="M16.9417 21.179C15.9445 21.179 15.0603 21.0085 14.289 20.6676C13.5219 20.3224 12.9168 19.8473 12.4736 19.2422C12.0305 18.6371 11.8046 17.9403 11.7961 17.152H14.9793C14.9921 17.4375 15.0837 17.6911 15.2542 17.9126C15.4246 18.13 15.6569 18.3004 15.9509 18.424C16.2449 18.5476 16.5795 18.6094 16.9545 18.6094C17.3295 18.6094 17.6597 18.5433 17.9452 18.4112C18.235 18.2749 18.4608 18.0895 18.6228 17.8551C18.7847 17.6165 18.8635 17.3437 18.8593 17.0369C18.8635 16.7301 18.7762 16.4574 18.5972 16.2188C18.4182 15.9801 18.1647 15.7947 17.8366 15.6626C17.5127 15.5305 17.1292 15.4645 16.686 15.4645H15.414V13.2145H16.686C17.0738 13.2145 17.4147 13.1506 17.7087 13.0227C18.007 12.8949 18.2393 12.7159 18.4055 12.4858C18.5716 12.2514 18.6526 11.983 18.6483 11.6804C18.6526 11.3864 18.5823 11.1286 18.4374 10.907C18.2968 10.6811 18.0986 10.5064 17.843 10.3828C17.5915 10.2592 17.2996 10.1974 16.9672 10.1974C16.6178 10.1974 16.3003 10.2592 16.0148 10.3828C15.7336 10.5064 15.5099 10.6811 15.3437 10.907C15.1775 11.1328 15.0901 11.3949 15.0816 11.6932H12.0581C12.0667 10.9134 12.284 10.2273 12.7101 9.63494C13.1363 9.03835 13.7158 8.57173 14.4488 8.23509C15.186 7.89844 16.0255 7.73011 16.9672 7.73011C17.9047 7.73011 18.7293 7.89418 19.441 8.2223C20.1526 8.55043 20.7066 8.99787 21.1029 9.56463C21.4992 10.1271 21.6974 10.7642 21.6974 11.4759C21.7016 12.2131 21.4608 12.8203 20.9751 13.2976C20.4935 13.7749 19.8735 14.0689 19.115 14.1797V14.282C20.1292 14.4013 20.8941 14.7294 21.4097 15.2663C21.9296 15.8033 22.1874 16.4744 22.1832 17.2798C22.1832 18.0384 21.9594 18.7116 21.512 19.2997C21.0688 19.8835 20.4509 20.3437 19.6583 20.6804C18.8699 21.0128 17.9644 21.179 16.9417 21.179Z" fill="black"/>
</g>
<defs>
<filter id="filter0_d_353_8829" x="0" y="0" width="34" height="31" filterUnits="userSpaceOnUse" color-interpolation-filters="sRGB">
<feFlood flood-opacity="0" result="BackgroundImageFix"/>
<feColorMatrix in="SourceAlpha" type="matrix" values="0 0 0 0 0 0 0 0 0 0 0 0 0 0 0 0 0 0 127 0" result="hardAlpha"/>
<feOffset dy="2"/>
<feGaussianBlur stdDeviation="0.5"/>
<feComposite in2="hardAlpha" operator="out"/>
<feColorMatrix type="matrix" values="0 0 0 0 0 0 0 0 0 0 0 0 0 0 0 0 0 0 0.5 0"/>
<feBlend mode="normal" in2="BackgroundImageFix" result="effect1_dropShadow_353_8829"/>
<feBlend mode="normal" in="SourceGraphic" in2="effect1_dropShadow_353_8829" result="shape"/>
</filter>
</defs>
</svg>
