<svg width="34" height="31" viewBox="0 0 34 31" fill="none" xmlns="http://www.w3.org/2000/svg">
<g filter="url(#filter0_d_353_8865)">
<path d="M2.71877 13.0077L9.00448 2.00772C9.36057 1.38457 10.0233 1 10.741 1H23.259C23.9767 1 24.6394 1.38457 24.9955 2.00772L31.2812 13.0077C31.6326 13.6226 31.6326 14.3774 31.2812 14.9923L24.9955 25.9923C24.6394 26.6154 23.9767 27 23.259 27H10.741C10.0233 27 9.36057 26.6154 9.00448 25.9923L2.71877 14.9923C2.36742 14.3774 2.36742 13.6226 2.71877 13.0077Z" fill="#9CA2AD" stroke="black" stroke-width="2"/>
<path d="M14.5605 8.36364V20H11.7537V10.9886H11.6855L9.08324 12.5795V10.1477L11.9526 8.36364H14.5605ZM16.333 20V17.9773L20.5773 14.2614C20.8955 13.9735 21.1663 13.7102 21.3898 13.4716C21.6133 13.2292 21.7837 12.9867 21.9011 12.7443C22.0186 12.4981 22.0773 12.2311 22.0773 11.9432C22.0773 11.6212 22.0072 11.3466 21.867 11.1193C21.7269 10.8883 21.5337 10.7102 21.2875 10.5852C21.0413 10.4602 20.7591 10.3977 20.4409 10.3977C20.1189 10.3977 19.8367 10.464 19.5943 10.5966C19.3519 10.7254 19.1625 10.9129 19.0261 11.1591C18.8936 11.4053 18.8273 11.7045 18.8273 12.0568H16.1625C16.1625 11.2652 16.3405 10.5814 16.6966 10.0057C17.0527 9.42992 17.5527 8.98674 18.1966 8.67614C18.8443 8.36174 19.5962 8.20455 20.4523 8.20455C21.3348 8.20455 22.1019 8.35227 22.7534 8.64773C23.4049 8.94318 23.9087 9.35606 24.2648 9.88636C24.6246 10.4129 24.8045 11.0246 24.8045 11.7216C24.8045 12.1648 24.7155 12.6042 24.5375 13.0398C24.3595 13.4754 24.0394 13.9564 23.5773 14.483C23.1189 15.0095 22.4674 15.6402 21.6227 16.375L20.2307 17.6591V17.733H24.9466V20H16.333Z" fill="black"/>
</g>
<defs>
<filter id="filter0_d_353_8865" x="0" y="0" width="34" height="31" filterUnits="userSpaceOnUse" color-interpolation-filters="sRGB">
<feFlood flood-opacity="0" result="BackgroundImageFix"/>
<feColorMatrix in="SourceAlpha" type="matrix" values="0 0 0 0 0 0 0 0 0 0 0 0 0 0 0 0 0 0 127 0" result="hardAlpha"/>
<feOffset dy="2"/>
<feGaussianBlur stdDeviation="0.5"/>
<feComposite in2="hardAlpha" operator="out"/>
<feColorMatrix type="matrix" values="0 0 0 0 0 0 0 0 0 0 0 0 0 0 0 0 0 0 0.5 0"/>
<feBlend mode="normal" in2="BackgroundImageFix" result="effect1_dropShadow_353_8865"/>
<feBlend mode="normal" in="SourceGraphic" in2="effect1_dropShadow_353_8865" result="shape"/>
</filter>
</defs>
</svg>
