<svg width="34" height="31" viewBox="0 0 34 31" fill="none" xmlns="http://www.w3.org/2000/svg">
<g filter="url(#filter0_d_353_8844)">
<path d="M2.71877 13.0077L9.00448 2.00772C9.36057 1.38457 10.0233 1 10.741 1H23.259C23.9767 1 24.6394 1.38457 24.9955 2.00772L31.2812 13.0077C31.6326 13.6226 31.6326 14.3774 31.2812 14.9923L24.9955 25.9923C24.6394 26.6154 23.9767 27 23.259 27H10.741C10.0233 27 9.36057 26.6154 9.00448 25.9923L2.71877 14.9923C2.36742 14.3774 2.36742 13.6226 2.71877 13.0077Z" fill="#9CA2AD" stroke="black" stroke-width="2"/>
<path d="M16.9968 21.179C15.9783 21.179 15.0685 21.017 14.2674 20.6932C13.4705 20.3651 12.8441 19.9219 12.3881 19.3636C11.9364 18.8011 11.7106 18.1662 11.7106 17.4588C11.7106 16.9176 11.8406 16.4212 12.1005 15.9695C12.3604 15.5178 12.712 15.1428 13.1552 14.8445C13.6026 14.5419 14.1012 14.348 14.6509 14.2628V14.1605C13.9308 14.0284 13.3406 13.6939 12.8803 13.157C12.4244 12.62 12.1964 11.9915 12.1964 11.2713C12.1964 10.5895 12.4031 9.98224 12.8164 9.44957C13.234 8.9169 13.8029 8.49716 14.5231 8.19034C15.2475 7.88352 16.0721 7.73011 16.9968 7.73011C17.9215 7.73011 18.744 7.88352 19.4641 8.19034C20.1886 8.49716 20.7575 8.9169 21.1708 9.44957C21.5884 9.98224 21.7972 10.5895 21.7972 11.2713C21.7972 11.9957 21.565 12.6264 21.1005 13.1634C20.6403 13.696 20.0543 14.0284 19.3427 14.1605V14.2628C19.8881 14.348 20.3825 14.5419 20.8256 14.8445C21.2731 15.1428 21.6268 15.5178 21.8867 15.9695C22.1509 16.4212 22.283 16.9176 22.283 17.4588C22.283 18.1662 22.055 18.8011 21.5991 19.3636C21.1431 19.9219 20.5167 20.3651 19.7198 20.6932C18.9272 21.017 18.0195 21.179 16.9968 21.179ZM16.9968 18.9354C17.3846 18.9354 17.7255 18.8629 18.0195 18.718C18.3136 18.5689 18.5437 18.3622 18.7099 18.098C18.8803 17.8338 18.9656 17.5355 18.9656 17.2031C18.9656 16.8622 18.8803 16.5597 18.7099 16.2955C18.5394 16.0312 18.305 15.8246 18.0067 15.6754C17.7127 15.522 17.3761 15.4453 16.9968 15.4453C16.6218 15.4453 16.2852 15.522 15.9869 15.6754C15.6886 15.8246 15.4542 16.0312 15.2837 16.2955C15.1133 16.5597 15.0281 16.8622 15.0281 17.2031C15.0281 17.5355 15.1112 17.8338 15.2773 18.098C15.4478 18.358 15.68 18.5625 15.9741 18.7116C16.2724 18.8608 16.6133 18.9354 16.9968 18.9354ZM16.9968 13.2145C17.3292 13.2145 17.6232 13.1463 17.8789 13.0099C18.1388 12.8736 18.3413 12.6839 18.4862 12.4411C18.6353 12.1982 18.7099 11.9233 18.7099 11.6165C18.7099 11.3097 18.6353 11.0391 18.4862 10.8047C18.3413 10.5703 18.141 10.3871 17.8853 10.255C17.6296 10.1186 17.3335 10.0504 16.9968 10.0504C16.6644 10.0504 16.3683 10.1186 16.1083 10.255C15.8484 10.3871 15.646 10.5703 15.5011 10.8047C15.3562 11.0391 15.2837 11.3097 15.2837 11.6165C15.2837 11.9233 15.3562 12.1982 15.5011 12.4411C15.6502 12.6797 15.8548 12.8693 16.1147 13.0099C16.3746 13.1463 16.6687 13.2145 16.9968 13.2145Z" fill="black"/>
</g>
<defs>
<filter id="filter0_d_353_8844" x="0" y="0" width="34" height="31" filterUnits="userSpaceOnUse" color-interpolation-filters="sRGB">
<feFlood flood-opacity="0" result="BackgroundImageFix"/>
<feColorMatrix in="SourceAlpha" type="matrix" values="0 0 0 0 0 0 0 0 0 0 0 0 0 0 0 0 0 0 127 0" result="hardAlpha"/>
<feOffset dy="2"/>
<feGaussianBlur stdDeviation="0.5"/>
<feComposite in2="hardAlpha" operator="out"/>
<feColorMatrix type="matrix" values="0 0 0 0 0 0 0 0 0 0 0 0 0 0 0 0 0 0 0.5 0"/>
<feBlend mode="normal" in2="BackgroundImageFix" result="effect1_dropShadow_353_8844"/>
<feBlend mode="normal" in="SourceGraphic" in2="effect1_dropShadow_353_8844" result="shape"/>
</filter>
</defs>
</svg>
