<svg width="34" height="31" viewBox="0 0 34 31" fill="none" xmlns="http://www.w3.org/2000/svg">
<g filter="url(#filter0_d_353_8850)">
<path d="M2.71877 13.0077L9.00448 2.00772C9.36057 1.38457 10.0233 1 10.741 1H23.259C23.9767 1 24.6394 1.38457 24.9955 2.00772L31.2812 13.0077C31.6326 13.6226 31.6326 14.3774 31.2812 14.9923L24.9955 25.9923C24.6394 26.6154 23.9767 27 23.259 27H10.741C10.0233 27 9.36057 26.6154 9.00448 25.9923L2.71877 14.9923C2.36742 14.3774 2.36742 13.6226 2.71877 13.0077Z" fill="#9CA2AD" stroke="black" stroke-width="2"/>
<path d="M15.6855 8.36364V20H12.8787V10.9886H12.8105L10.2082 12.5795V10.1477L13.0776 8.36364H15.6855ZM22.8386 8.36364V20H20.0318V10.9886H19.9636L17.3614 12.5795V10.1477L20.2307 8.36364H22.8386Z" fill="black"/>
</g>
<defs>
<filter id="filter0_d_353_8850" x="0" y="0" width="34" height="31" filterUnits="userSpaceOnUse" color-interpolation-filters="sRGB">
<feFlood flood-opacity="0" result="BackgroundImageFix"/>
<feColorMatrix in="SourceAlpha" type="matrix" values="0 0 0 0 0 0 0 0 0 0 0 0 0 0 0 0 0 0 127 0" result="hardAlpha"/>
<feOffset dy="2"/>
<feGaussianBlur stdDeviation="0.5"/>
<feComposite in2="hardAlpha" operator="out"/>
<feColorMatrix type="matrix" values="0 0 0 0 0 0 0 0 0 0 0 0 0 0 0 0 0 0 0.5 0"/>
<feBlend mode="normal" in2="BackgroundImageFix" result="effect1_dropShadow_353_8850"/>
<feBlend mode="normal" in="SourceGraphic" in2="effect1_dropShadow_353_8850" result="shape"/>
</filter>
</defs>
</svg>
