<svg width="34" height="31" viewBox="0 0 34 31" fill="none" xmlns="http://www.w3.org/2000/svg">
<g filter="url(#filter0_d_354_3162)">
<path d="M2.71877 13.0077L9.00448 2.00772C9.36057 1.38457 10.0233 1 10.741 1H23.259C23.9767 1 24.6394 1.38457 24.9955 2.00772L31.2812 13.0077C31.6326 13.6226 31.6326 14.3774 31.2812 14.9923L24.9955 25.9923C24.6394 26.6154 23.9767 27 23.259 27H10.741C10.0233 27 9.36057 26.6154 9.00448 25.9923L2.71877 14.9923C2.36742 14.3774 2.36742 13.6226 2.71877 13.0077Z" fill="#9CA2AD" stroke="black" stroke-width="2"/>
<path d="M16.8378 7.73011C17.5537 7.73011 18.2377 7.8473 18.8896 8.08168C19.5416 8.31179 20.1233 8.6804 20.6347 9.1875C21.146 9.69034 21.5487 10.353 21.8428 11.1754C22.1368 11.9979 22.2838 13.0014 22.2838 14.1861C22.2881 15.277 22.1602 16.255 21.9003 17.12C21.6404 17.9808 21.2675 18.7138 20.7817 19.3189C20.3002 19.924 19.7206 20.3864 19.0431 20.706C18.3655 21.0213 17.6091 21.179 16.7739 21.179C15.8534 21.179 15.0416 21.0021 14.3385 20.6484C13.6396 20.2905 13.0793 19.8089 12.6574 19.2038C12.2398 18.5987 11.9905 17.9212 11.9095 17.1712H15.0225C15.1205 17.6058 15.3271 17.9339 15.6425 18.1555C15.9578 18.3729 16.335 18.4815 16.7739 18.4815C17.575 18.4815 18.1737 18.1342 18.57 17.4396C18.9664 16.745 19.1645 15.8011 19.1645 14.608H19.0878C18.9046 15 18.6446 15.3366 18.308 15.6179C17.9756 15.8991 17.5899 16.1143 17.151 16.2635C16.7121 16.4126 16.2497 16.4872 15.7639 16.4872C14.9798 16.4872 14.2874 16.3082 13.6865 15.9503C13.0899 15.5923 12.6212 15.1001 12.2803 14.4737C11.9436 13.8473 11.7732 13.1314 11.7689 12.326C11.7646 11.4226 11.9756 10.6257 12.4017 9.93537C12.8279 9.24077 13.4223 8.69957 14.1851 8.31179C14.9479 7.91974 15.8321 7.72585 16.8378 7.73011ZM16.857 10.1591C16.4649 10.1591 16.1155 10.2507 15.8087 10.4339C15.5061 10.6172 15.2675 10.8643 15.0928 11.1754C14.9181 11.4865 14.8328 11.8359 14.8371 12.2237C14.8414 12.6115 14.9287 12.9609 15.0992 13.272C15.2739 13.5831 15.5104 13.8303 15.8087 14.0135C16.1112 14.1967 16.4564 14.2884 16.8442 14.2884C17.134 14.2884 17.4024 14.2351 17.6496 14.1286C17.8968 14.022 18.1119 13.875 18.2952 13.6875C18.4784 13.4957 18.6212 13.2741 18.7235 13.0227C18.83 12.7713 18.8811 12.5028 18.8769 12.2173C18.8726 11.8381 18.7831 11.4929 18.6084 11.1818C18.4337 10.8707 18.1929 10.6236 17.8861 10.4403C17.5835 10.2528 17.2405 10.1591 16.857 10.1591Z" fill="black"/>
</g>
<defs>
<filter id="filter0_d_354_3162" x="0" y="0" width="34" height="31" filterUnits="userSpaceOnUse" color-interpolation-filters="sRGB">
<feFlood flood-opacity="0" result="BackgroundImageFix"/>
<feColorMatrix in="SourceAlpha" type="matrix" values="0 0 0 0 0 0 0 0 0 0 0 0 0 0 0 0 0 0 127 0" result="hardAlpha"/>
<feOffset dy="2"/>
<feGaussianBlur stdDeviation="0.5"/>
<feComposite in2="hardAlpha" operator="out"/>
<feColorMatrix type="matrix" values="0 0 0 0 0 0 0 0 0 0 0 0 0 0 0 0 0 0 0.5 0"/>
<feBlend mode="normal" in2="BackgroundImageFix" result="effect1_dropShadow_354_3162"/>
<feBlend mode="normal" in="SourceGraphic" in2="effect1_dropShadow_354_3162" result="shape"/>
</filter>
</defs>
</svg>
