<svg width="34" height="31" viewBox="0 0 34 31" fill="none" xmlns="http://www.w3.org/2000/svg">
<g filter="url(#filter0_d_353_8868)">
<path d="M2.71877 13.0077L9.00448 2.00772C9.36057 1.38457 10.0233 1 10.741 1H23.259C23.9767 1 24.6394 1.38457 24.9955 2.00772L31.2812 13.0077C31.6326 13.6226 31.6326 14.3774 31.2812 14.9923L24.9955 25.9923C24.6394 26.6154 23.9767 27 23.259 27H10.741C10.0233 27 9.36057 26.6154 9.00448 25.9923L2.71877 14.9923C2.36742 14.3774 2.36742 13.6226 2.71877 13.0077Z" fill="#9CA2AD" stroke="black" stroke-width="2"/>
<path d="M14.3261 8.36364V20H11.5193V10.9886H11.4511L8.84886 12.5795V10.1477L11.7182 8.36364H14.3261ZM20.5247 20.1591C19.6384 20.1591 18.8524 20.0076 18.1668 19.7045C17.4849 19.3977 16.9471 18.9754 16.5531 18.4375C16.1592 17.8996 15.9584 17.2803 15.9509 16.5795H18.7804C18.7918 16.8333 18.8732 17.0587 19.0247 17.2557C19.1762 17.4489 19.3827 17.6004 19.644 17.7102C19.9054 17.8201 20.2027 17.875 20.5361 17.875C20.8694 17.875 21.163 17.8163 21.4168 17.6989C21.6743 17.5777 21.8751 17.4129 22.019 17.2045C22.163 16.9924 22.233 16.75 22.2293 16.4773C22.233 16.2045 22.1554 15.9621 21.9963 15.75C21.8372 15.5379 21.6118 15.3731 21.3202 15.2557C21.0323 15.1383 20.6914 15.0795 20.2974 15.0795H19.1668V13.0795H20.2974C20.6421 13.0795 20.9452 13.0227 21.2065 12.9091C21.4717 12.7955 21.6781 12.6364 21.8259 12.4318C21.9736 12.2235 22.0455 11.9848 22.0418 11.7159C22.0455 11.4545 21.983 11.2254 21.8543 11.0284C21.7293 10.8277 21.5531 10.6723 21.3259 10.5625C21.1024 10.4527 20.8429 10.3977 20.5474 10.3977C20.2368 10.3977 19.9546 10.4527 19.7009 10.5625C19.4509 10.6723 19.252 10.8277 19.1043 11.0284C18.9565 11.2292 18.8789 11.4621 18.8713 11.7273H16.1838C16.1914 11.0341 16.3846 10.4242 16.7634 9.89773C17.1421 9.36742 17.6573 8.95265 18.3088 8.65341C18.9641 8.35417 19.7103 8.20455 20.5474 8.20455C21.3808 8.20455 22.1137 8.35038 22.7463 8.64205C23.3789 8.93371 23.8713 9.33144 24.2236 9.83523C24.5759 10.3352 24.752 10.9015 24.752 11.5341C24.7558 12.1894 24.5418 12.7292 24.1099 13.1534C23.6819 13.5777 23.1308 13.839 22.4565 13.9375V14.0284C23.358 14.1345 24.038 14.4261 24.4963 14.9034C24.9584 15.3807 25.1876 15.9773 25.1838 16.6932C25.1838 17.3674 24.9849 17.9659 24.5872 18.4886C24.1933 19.0076 23.644 19.4167 22.9395 19.7159C22.2387 20.0114 21.4338 20.1591 20.5247 20.1591Z" fill="black"/>
</g>
<defs>
<filter id="filter0_d_353_8868" x="0" y="0" width="34" height="31" filterUnits="userSpaceOnUse" color-interpolation-filters="sRGB">
<feFlood flood-opacity="0" result="BackgroundImageFix"/>
<feColorMatrix in="SourceAlpha" type="matrix" values="0 0 0 0 0 0 0 0 0 0 0 0 0 0 0 0 0 0 127 0" result="hardAlpha"/>
<feOffset dy="2"/>
<feGaussianBlur stdDeviation="0.5"/>
<feComposite in2="hardAlpha" operator="out"/>
<feColorMatrix type="matrix" values="0 0 0 0 0 0 0 0 0 0 0 0 0 0 0 0 0 0 0.5 0"/>
<feBlend mode="normal" in2="BackgroundImageFix" result="effect1_dropShadow_353_8868"/>
<feBlend mode="normal" in="SourceGraphic" in2="effect1_dropShadow_353_8868" result="shape"/>
</filter>
</defs>
</svg>
