<svg width="34" height="31" viewBox="0 0 34 31" fill="none" xmlns="http://www.w3.org/2000/svg">
<g filter="url(#filter0_d_353_8838)">
<path d="M2.71877 13.0077L9.00448 2.00772C9.36057 1.38457 10.0233 1 10.741 1H23.259C23.9767 1 24.6394 1.38457 24.9955 2.00772L31.2812 13.0077C31.6326 13.6226 31.6326 14.3774 31.2812 14.9923L24.9955 25.9923C24.6394 26.6154 23.9767 27 23.259 27H10.741C10.0233 27 9.36057 26.6154 9.00448 25.9923L2.71877 14.9923C2.36742 14.3774 2.36742 13.6226 2.71877 13.0077Z" fill="#9CA2AD" stroke="black" stroke-width="2"/>
<path d="M17.1574 21.179C16.4415 21.179 15.7554 21.0639 15.0992 20.8338C14.4429 20.5994 13.8591 20.2287 13.3477 19.7216C12.8364 19.2102 12.4337 18.5412 12.1396 17.7145C11.8456 16.8835 11.7007 15.8714 11.705 14.6783C11.7093 13.6001 11.8414 12.6328 12.1013 11.7763C12.3612 10.9155 12.732 10.1847 13.2135 9.58381C13.6993 8.98295 14.2789 8.52486 14.9521 8.20952C15.6297 7.88991 16.3861 7.73011 17.2213 7.73011C18.1375 7.73011 18.945 7.90909 19.6439 8.26705C20.347 8.62074 20.9095 9.09801 21.3314 9.69886C21.7533 10.2955 22.0026 10.9602 22.0793 11.6932H18.9664C18.8726 11.2798 18.6659 10.9666 18.3463 10.7536C18.031 10.5362 17.656 10.4276 17.2213 10.4276C16.4202 10.4276 15.8215 10.7749 15.4252 11.4695C15.0331 12.1641 14.8328 13.093 14.8243 14.2564H14.9074C15.0864 13.8643 15.3442 13.5277 15.6808 13.2464C16.0175 12.9652 16.4031 12.75 16.8378 12.6009C17.2767 12.4474 17.7412 12.3707 18.2313 12.3707C19.0154 12.3707 19.7078 12.5518 20.3087 12.9141C20.9095 13.2763 21.3804 13.7727 21.7213 14.4034C22.0622 15.0298 22.2306 15.7479 22.2263 16.5575C22.2306 17.4695 22.0175 18.2749 21.5871 18.9737C21.1567 19.6683 20.5601 20.2095 19.7973 20.5973C19.0388 20.9851 18.1588 21.179 17.1574 21.179ZM17.1382 18.75C17.526 18.75 17.8733 18.6584 18.1801 18.4751C18.4869 18.2919 18.7277 18.0426 18.9024 17.7273C19.0771 17.4119 19.1624 17.0561 19.1581 16.6598C19.1624 16.2592 19.0771 15.9034 18.9024 15.5923C18.732 15.2812 18.4933 15.0341 18.1865 14.8509C17.884 14.6676 17.5367 14.576 17.1446 14.576C16.8591 14.576 16.5928 14.6293 16.3456 14.7358C16.0985 14.8423 15.8833 14.9915 15.7 15.1832C15.521 15.3707 15.3804 15.5923 15.2781 15.848C15.1759 16.0994 15.1226 16.3722 15.1183 16.6662C15.1226 17.054 15.2121 17.4055 15.3868 17.7209C15.5615 18.0362 15.8002 18.2876 16.1027 18.4751C16.4053 18.6584 16.7504 18.75 17.1382 18.75Z" fill="black"/>
</g>
<defs>
<filter id="filter0_d_353_8838" x="0" y="0" width="34" height="31" filterUnits="userSpaceOnUse" color-interpolation-filters="sRGB">
<feFlood flood-opacity="0" result="BackgroundImageFix"/>
<feColorMatrix in="SourceAlpha" type="matrix" values="0 0 0 0 0 0 0 0 0 0 0 0 0 0 0 0 0 0 127 0" result="hardAlpha"/>
<feOffset dy="2"/>
<feGaussianBlur stdDeviation="0.5"/>
<feComposite in2="hardAlpha" operator="out"/>
<feColorMatrix type="matrix" values="0 0 0 0 0 0 0 0 0 0 0 0 0 0 0 0 0 0 0.5 0"/>
<feBlend mode="normal" in2="BackgroundImageFix" result="effect1_dropShadow_353_8838"/>
<feBlend mode="normal" in="SourceGraphic" in2="effect1_dropShadow_353_8838" result="shape"/>
</filter>
</defs>
</svg>
