<svg width="32" height="32" viewBox="0 0 32 32" fill="none" xmlns="http://www.w3.org/2000/svg">
<path d="M13.8001 23.6764L14.2161 24.3004L13.8001 23.6764L2.56555 31.166C2.48342 31.2208 2.38691 31.25 2.2882 31.25H1.25C0.973858 31.25 0.75 31.0261 0.75 30.75V29.75C0.75 29.6418 0.785089 29.5365 0.849999 29.45L0.25 29L0.85 29.45L8.36572 19.429C8.42674 19.3477 8.51112 19.2869 8.6076 19.2547L14.2676 17.368C14.625 17.2489 14.9808 17.5529 14.9189 17.9246L14.0159 23.3425C13.9932 23.4789 13.915 23.5997 13.8001 23.6764Z" fill="url(#paint0_linear_403_880)" stroke="black" stroke-width="1.5"/>
<path d="M8.32365 13.8001L7.69961 14.2161L8.32365 13.8001L0.833976 2.56555C0.77922 2.48341 0.750001 2.38691 0.750001 2.2882L0.750001 1.25C0.750001 0.973857 0.973859 0.749999 1.25 0.749999L2.2882 0.749999C2.38691 0.749999 2.48341 0.779218 2.56555 0.833974L13.8001 8.32365C13.915 8.40031 13.9932 8.52115 14.0159 8.65747L14.9725 14.3971C15.0289 14.7355 14.7355 15.0289 14.3971 14.9725L8.65747 14.0159C8.52115 13.9932 8.40031 13.915 8.32365 13.8001Z" fill="url(#paint1_linear_403_880)" stroke="black" stroke-width="1.5"/>
<path d="M29.7118 0.750001L30.75 0.750001C31.0261 0.750001 31.25 0.973859 31.25 1.25L31.25 2.2882C31.25 2.38691 31.2208 2.48341 31.166 2.56555L23.6764 13.8001L24.3004 14.2161L23.6764 13.8001C23.5997 13.915 23.4789 13.9932 23.3425 14.0159L17.6029 14.9725C17.2645 15.0289 16.9711 14.7355 17.0275 14.3971L17.9841 8.65747C18.0068 8.52115 18.085 8.40031 18.1999 8.32364L29.4345 0.833976C29.5166 0.779219 29.6131 0.750001 29.7118 0.750001Z" fill="url(#paint2_linear_403_880)" stroke="black" stroke-width="1.5"/>
<path d="M31.25 29.7118L31.25 30.75C31.25 31.0261 31.0261 31.25 30.75 31.25L29.7118 31.25C29.6131 31.25 29.5166 31.2208 29.4345 31.166L18.1999 23.6764C18.085 23.5997 18.0068 23.4789 17.9841 23.3425L17.0275 17.6029C16.9711 17.2645 17.2645 16.9711 17.6029 17.0275L23.3425 17.9841C23.4789 18.0068 23.5997 18.085 23.6764 18.1999L31.166 29.4345C31.2208 29.5166 31.25 29.6131 31.25 29.7118Z" fill="url(#paint3_linear_403_880)" stroke="black" stroke-width="1.5"/>
<defs>
<linearGradient id="paint0_linear_403_880" x1="8" y1="16" x2="8" y2="32" gradientUnits="userSpaceOnUse">
<stop stop-color="#C084FC"/>
<stop offset="1" stop-color="#7C3AED"/>
</linearGradient>
<linearGradient id="paint1_linear_403_880" x1="16" y1="8" x2="6.03983e-07" y2="8" gradientUnits="userSpaceOnUse">
<stop stop-color="#C084FC"/>
<stop offset="1" stop-color="#7C3AED"/>
</linearGradient>
<linearGradient id="paint2_linear_403_880" x1="24" y1="16" x2="24" y2="2.54292e-07" gradientUnits="userSpaceOnUse">
<stop stop-color="#C084FC"/>
<stop offset="1" stop-color="#7C3AED"/>
</linearGradient>
<linearGradient id="paint3_linear_403_880" x1="16" y1="24" x2="32" y2="24" gradientUnits="userSpaceOnUse">
<stop stop-color="#C084FC"/>
<stop offset="1" stop-color="#7C3AED"/>
</linearGradient>
</defs>
</svg>
