<svg width="128" height="128" viewBox="0 0 128 128" fill="none" xmlns="http://www.w3.org/2000/svg">
<path d="M7.76682 128H4C1.79086 128 0 126.209 0 124V120.508C0 118.561 0.631602 116.666 1.8 115.108L29.2263 78.5398C30.6908 76.5871 32.716 75.1275 35.0316 74.3556L53.4968 68.2005C57.7862 66.7707 62.0558 70.4191 61.3125 74.879L58.5596 91.3966C58.0143 94.6683 56.1391 97.5685 53.3793 99.4084L12.7591 126.488C11.2807 127.474 9.54364 128 7.76682 128Z" fill="white"/>
<path d="M0.000354427 7.76682L0.000354592 4C0.000354689 1.79086 1.79122 -2.67339e-06 4.00036 -2.57682e-06L7.76718 -2.41217e-06C9.544 -2.3345e-06 11.2811 0.525941 12.7595 1.51155L53.3796 28.5916C56.1395 30.4315 58.0146 33.3317 58.5599 36.6035L61.5702 54.6651C62.247 58.726 58.7264 62.2467 54.6655 61.5699L36.6038 58.5596C33.332 58.0143 30.4319 56.1391 28.592 53.3793L1.5119 12.7591C0.526298 11.2807 0.00035435 9.54364 0.000354427 7.76682Z" fill="white"/>
<path d="M120.233 -8.30839e-06L124 -7.97909e-06C126.209 -7.78596e-06 128 1.79086 128 3.99999L128 7.76681C128 9.54364 127.474 11.2807 126.488 12.7591L99.4084 53.3793C97.5685 56.1391 94.6683 58.0143 91.3965 58.5596L73.3349 61.5698C69.274 62.2467 65.7533 58.726 66.4301 54.6651L69.4404 36.6034C69.9857 33.3317 71.8609 30.4315 74.6207 28.5916L115.241 1.51154C116.719 0.525935 118.456 -8.46373e-06 120.233 -8.30839e-06Z" fill="white"/>
<path d="M128 120.233L128 124C128 126.209 126.209 128 124 128L120.233 128C118.456 128 116.719 127.474 115.241 126.488L74.6204 99.4084C71.8605 97.5685 69.9854 94.6683 69.4401 91.3965L66.4298 73.3349C65.753 69.274 69.2736 65.7533 73.3346 66.4301L91.3962 69.4404C94.668 69.9857 97.5681 71.8609 99.408 74.6207L126.488 115.241C127.474 116.719 128 118.456 128 120.233Z" fill="white"/>
</svg>
