<svg width="34" height="31" viewBox="0 0 34 31" fill="none" xmlns="http://www.w3.org/2000/svg">
<g filter="url(#filter0_d_369_893)">
<path d="M2.71877 13.0077L9.00448 2.00772C9.36057 1.38457 10.0233 1 10.741 1H23.259C23.9767 1 24.6394 1.38457 24.9955 2.00772L31.2812 13.0077C31.6326 13.6226 31.6326 14.3774 31.2812 14.9923L24.9955 25.9923C24.6394 26.6154 23.9767 27 23.259 27H10.741C10.0233 27 9.36057 26.6154 9.00448 25.9923L2.71877 14.9923C2.36742 14.3774 2.36742 13.6226 2.71877 13.0077Z" fill="url(#paint0_linear_369_893)" stroke="black" stroke-width="2"/>
<path d="M9.66535 20H8.99868L9.66535 15.3333H7.33201C6.74535 15.3333 7.11201 14.8333 7.12535 14.8133C7.98535 13.2933 9.27868 11.0267 11.0053 8H11.672L11.0053 12.6667H13.3453C13.612 12.6667 13.7587 12.7933 13.612 13.1067C10.9787 17.7 9.66535 20 9.66535 20Z" fill="black"/>
<path d="M16.3355 20H15.6688L16.3355 15.3333H14.0022C13.4155 15.3333 13.7822 14.8333 13.7955 14.8133C14.6555 13.2933 15.9488 11.0267 17.6755 8H18.3422L17.6755 12.6667H20.0155C20.2822 12.6667 20.4288 12.7933 20.2822 13.1067C17.6488 17.7 16.3355 20 16.3355 20Z" fill="black"/>
<path d="M23.0054 20H22.3388L23.0054 15.3333H20.6721C20.0854 15.3333 20.4521 14.8333 20.4654 14.8133C21.3254 13.2933 22.6188 11.0267 24.3454 8H25.0121L24.3454 12.6667H26.6854C26.9521 12.6667 27.0988 12.7933 26.9521 13.1067C24.3188 17.7 23.0054 20 23.0054 20Z" fill="black"/>
</g>
<defs>
<filter id="filter0_d_369_893" x="0" y="0" width="34" height="31" filterUnits="userSpaceOnUse" color-interpolation-filters="sRGB">
<feFlood flood-opacity="0" result="BackgroundImageFix"/>
<feColorMatrix in="SourceAlpha" type="matrix" values="0 0 0 0 0 0 0 0 0 0 0 0 0 0 0 0 0 0 127 0" result="hardAlpha"/>
<feOffset dy="2"/>
<feGaussianBlur stdDeviation="0.5"/>
<feComposite in2="hardAlpha" operator="out"/>
<feColorMatrix type="matrix" values="0 0 0 0 0 0 0 0 0 0 0 0 0 0 0 0 0 0 0.5 0"/>
<feBlend mode="normal" in2="BackgroundImageFix" result="effect1_dropShadow_369_893"/>
<feBlend mode="normal" in="SourceGraphic" in2="effect1_dropShadow_369_893" result="shape"/>
</filter>
<linearGradient id="paint0_linear_369_893" x1="17" y1="0" x2="17" y2="28" gradientUnits="userSpaceOnUse">
<stop stop-color="#FDBA74"/>
<stop offset="1" stop-color="#F43F5E"/>
</linearGradient>
</defs>
</svg>
