<svg width="507" height="122" viewBox="0 0 507 122" fill="none" xmlns="http://www.w3.org/2000/svg">
<path d="M198.275 122H195C192.791 122 191 120.209 191 118V115C191 113.053 191.632 111.158 192.8 109.6L218.751 74.9988C220.215 73.0461 222.241 71.5865 224.556 70.8146L241.546 65.1513C245.835 63.7215 250.105 67.3699 249.362 71.8298L246.855 86.872C246.309 90.1437 244.434 93.0439 241.674 94.8838L203.267 120.488C201.789 121.474 200.052 122 198.275 122Z" fill="white"/>
<path d="M191 7.27502L191 4C191 1.79086 192.791 2.70081e-06 195 2.79737e-06L198.275 2.94053e-06C200.052 3.01819e-06 201.789 0.525944 203.267 1.51155L241.674 27.1162C244.434 28.9561 246.309 31.8563 246.855 35.1281L249.619 51.7143C250.296 55.7752 246.775 59.2959 242.714 58.6191L226.128 55.8547C222.856 55.3094 219.956 53.4342 218.116 50.6744L192.512 12.2673C191.526 10.7889 191 9.05185 191 7.27502Z" fill="white"/>
<path d="M305.725 3.17869e-06L309 3.46501e-06C311.209 3.65814e-06 313 1.79086 313 4L313 7.27502C313 9.05185 312.474 10.7889 311.488 12.2673L285.884 50.6744C284.044 53.4342 281.144 55.3094 277.872 55.8547L261.286 58.619C257.225 59.2959 253.704 55.7752 254.381 51.7143L257.145 35.128C257.691 31.8563 259.566 28.9561 262.326 27.1162L300.733 1.51155C302.211 0.525947 303.948 3.02336e-06 305.725 3.17869e-06Z" fill="white"/>
<path d="M313 114.725L313 118C313 120.209 311.209 122 309 122L305.725 122C303.948 122 302.211 121.474 300.733 120.488L262.326 94.8838C259.566 93.0439 257.691 90.1437 257.145 86.872L254.381 70.2857C253.704 66.2248 257.225 62.7041 261.286 63.381L277.872 66.1453C281.144 66.6906 284.044 68.5658 285.884 71.3257L311.488 109.733C312.474 111.211 313 112.948 313 114.725Z" fill="white"/>
<path d="M63.6477 26.1818V96H57.4432L16.1932 37.5341H15.6477V96H9.27273V26.1818H15.4432L56.8295 84.7159H57.375V26.1818H63.6477Z" fill="white"/>
<path d="M112.273 96V26.1818H152.773V31.9091H118.648V58.1932H150.625V63.9205H118.648V90.2727H153.455V96H112.273Z" fill="white"/>
<path d="M398.807 26.1818H405.182V72.4091C405.182 77.1591 404.068 81.4091 401.841 85.1591C399.614 88.8864 396.511 91.8295 392.534 93.9886C388.58 96.125 383.977 97.1932 378.727 97.1932C373.5 97.1932 368.898 96.1136 364.92 93.9545C360.943 91.7955 357.841 88.8523 355.614 85.125C353.386 81.3977 352.273 77.1591 352.273 72.4091V26.1818H358.648V71.9659C358.648 75.6705 359.477 78.9773 361.136 81.8864C362.795 84.7727 365.125 87.0455 368.125 88.7045C371.148 90.3636 374.682 91.1932 378.727 91.1932C382.773 91.1932 386.307 90.3636 389.33 88.7045C392.352 87.0455 394.682 84.7727 396.318 81.8864C397.977 78.9773 398.807 75.6705 398.807 71.9659V26.1818Z" fill="white"/>
<path d="M492.182 43.6364C491.795 39.75 490.08 36.6591 487.034 34.3636C483.989 32.0682 480.159 30.9205 475.545 30.9205C472.295 30.9205 469.432 31.4773 466.955 32.5909C464.5 33.7045 462.568 35.25 461.159 37.2273C459.773 39.1818 459.08 41.4091 459.08 43.9091C459.08 45.75 459.477 47.3636 460.273 48.75C461.068 50.1364 462.136 51.3295 463.477 52.3295C464.841 53.3068 466.341 54.1477 467.977 54.8523C469.636 55.5568 471.307 56.1477 472.989 56.625L480.352 58.7386C482.58 59.3523 484.807 60.1364 487.034 61.0909C489.261 62.0455 491.295 63.25 493.136 64.7045C495 66.1364 496.489 67.8977 497.602 69.9886C498.739 72.0568 499.307 74.5455 499.307 77.4545C499.307 81.1818 498.341 84.5341 496.409 87.5114C494.477 90.4886 491.705 92.8523 488.091 94.6023C484.477 96.3295 480.148 97.1932 475.102 97.1932C470.352 97.1932 466.227 96.4091 462.727 94.8409C459.227 93.25 456.477 91.0568 454.477 88.2614C452.477 85.4659 451.352 82.2273 451.102 78.5455H457.648C457.875 81.2955 458.784 83.625 460.375 85.5341C461.966 87.4432 464.034 88.8977 466.58 89.8977C469.125 90.875 471.966 91.3636 475.102 91.3636C478.58 91.3636 481.67 90.7841 484.375 89.625C487.102 88.4432 489.239 86.8068 490.784 84.7159C492.352 82.6023 493.136 80.1477 493.136 77.3523C493.136 74.9886 492.523 73.0114 491.295 71.4205C490.068 69.8068 488.352 68.4545 486.148 67.3636C483.966 66.2727 481.432 65.3068 478.545 64.4659L470.193 62.0114C464.716 60.375 460.466 58.1136 457.443 55.2273C454.42 52.3409 452.909 48.6591 452.909 44.1818C452.909 40.4318 453.909 37.1364 455.909 34.2955C457.932 31.4318 460.659 29.2045 464.091 27.6136C467.545 26 471.42 25.1932 475.716 25.1932C480.057 25.1932 483.898 25.9886 487.239 27.5795C490.58 29.1705 493.227 31.3636 495.182 34.1591C497.159 36.9318 498.216 40.0909 498.352 43.6364H492.182Z" fill="white"/>
</svg>
